<?xml version="1.0" standalone="no"?><!DOCTYPE svg PUBLIC "-//W3C//DTD SVG 1.1//EN" "http://www.w3.org/Graphics/SVG/1.1/DTD/svg11.dtd"><svg t="1639300274760" class="icon" viewBox="0 0 1024 1024" version="1.1" xmlns="http://www.w3.org/2000/svg" p-id="1344" xmlns:xlink="http://www.w3.org/1999/xlink" width="200" height="200"><defs><style type="text/css"></style></defs><path d="M806.4 172.8l-633.6 633.6c-12.8 12.8-12.8 32 0 44.8 12.8 12.8 32 12.8 44.8 0l633.6-633.6c12.8-12.8 12.8-32 0-44.8-12.8-12.8-32-12.8-44.8 0z" fill="#333333" p-id="1345"></path><path d="M172.8 172.8c-12.8 12.8-12.8 32 0 44.8l633.6 633.6c12.8 12.8 32 12.8 44.8 0 12.8-12.8 12.8-32 0-44.8L217.6 172.8c-12.8-12.8-32-12.8-44.8 0z" fill="#333333" p-id="1346"></path></svg>